<svg xmlns="http://www.w3.org/2000/svg" width="512" height="512"><path fill="none" d="M-1-1h582v402H-1z"/><g fill="#4c4c4c"><path d="M378.4 211.7c26.5 0 48-21.5 48-48s-21.5-48-48-48-48 21.5-48 48 21.5 48 48 48z"/><path d="M472.5 41.3h-436c-17.2 0-31 14-31 31.4v364c0 17.5 13.8 31.6 31 31.6h436c17.4 0 31.2-14 31.2-31.5v-364c0-17.4-13.8-31.5-31.2-31.5zM358 261c-3.5-3.8-8.6-6.8-14.3-6.8-5.7 0-9.7 2.7-14.3 6.4L308.6 278c-4.3 3.2-7.8 5.4-12.8 5.4-4.7 0-9-1.8-12.2-4.6l-4.8-4.6-59.8-64.7c-4.5-5-11-8.3-18.6-8.3-7.4 0-14.3 3.7-18.7 8.7L41 379.2V90c1.2-7.7 7-13 14.6-13h397.8c7.7 0 14 5.5 14.4 13.2l.3 289.6L358 261z"/></g></svg>